<?xml version="1.0" standalone="no"?>
<!DOCTYPE svg PUBLIC "-//W3C//DTD SVG 20010904//EN"
 "http://www.w3.org/TR/2001/REC-SVG-20010904/DTD/svg10.dtd">
<svg version="1.0" xmlns="http://www.w3.org/2000/svg"
 width="1200.000000pt" height="1200.000000pt" viewBox="0 0 1200.000000 1200.000000"
 preserveAspectRatio="xMidYMid meet">

<g transform="translate(0.000000,1200.000000) scale(0.100000,-0.100000)"
fill="#000000" stroke="none">
<path d="M5705 10399 c-598 -39 -1192 -198 -1720 -462 -448 -223 -796 -470
-1144 -811 -413 -406 -689 -794 -934 -1315 -191 -404 -318 -852 -379 -1335
-30 -233 -32 -773 -5 -996 81 -658 275 -1237 593 -1770 309 -517 726 -977
1205 -1328 l57 -41 22 51 c24 55 78 285 104 440 46 271 50 336 51 688 0 490
-31 747 -140 1172 -68 267 -84 359 -92 523 -10 213 14 364 103 660 85 283 109
428 124 742 26 553 64 756 176 930 19 29 100 122 182 207 166 173 208 235 225
329 10 59 8 80 -18 209 -49 239 -36 389 47 538 106 191 347 389 563 461 99 34
260 34 322 2 188 -101 160 -350 -77 -683 -161 -226 -214 -340 -215 -460 0
-114 46 -179 246 -345 192 -160 244 -227 350 -450 73 -155 112 -254 221 -565
49 -140 103 -279 121 -309 74 -123 212 -205 417 -248 109 -23 151 -26 330 -27
226 -1 294 8 470 66 265 86 488 243 557 394 23 51 25 65 20 136 -4 49 -18 111
-38 166 -82 230 -80 308 15 508 160 337 438 554 710 554 118 0 223 -56 268
-143 17 -34 20 -53 15 -121 -5 -96 -13 -113 -152 -366 -136 -246 -190 -354
-210 -425 -23 -77 -16 -139 19 -174 23 -23 34 -26 89 -24 137 4 326 103 571
299 220 177 283 248 421 479 122 204 208 278 325 278 91 0 153 -41 201 -133
34 -64 34 -206 1 -302 -49 -141 -183 -324 -443 -608 -74 -80 -189 -206 -258
-280 -301 -328 -459 -550 -507 -715 -29 -103 -9 -438 46 -745 86 -479 291
-1036 562 -1525 114 -207 275 -435 306 -435 6 0 56 57 112 127 469 594 781
1298 900 2038 72 450 72 967 -1 1410 -236 1436 -1159 2665 -2474 3296 -469
225 -984 370 -1505 424 -192 19 -568 27 -755 14z"/>
<path d="M5865 5619 c-293 -49 -433 -297 -487 -864 -18 -192 -18 -1873 0
-2155 29 -450 81 -712 172 -863 47 -78 130 -146 229 -189 73 -31 83 -33 223
-36 337 -8 980 78 1119 148 64 33 149 93 186 131 98 103 113 308 62 864 -39
427 -81 740 -265 1945 -69 454 -190 682 -445 839 -215 132 -582 216 -794 180z"/>
<path d="M4302 3915 c-63 -71 -119 -321 -143 -635 -15 -208 -6 -784 15 -940
32 -234 93 -469 130 -499 6 -5 66 -30 131 -55 l120 -44 22 26 c27 32 59 133
73 232 16 108 13 511 -5 755 -54 729 -166 1195 -289 1195 -15 0 -35 -13 -54
-35z"/>
<path d="M8054 3846 c-66 -29 -107 -151 -125 -375 -23 -289 25 -751 111 -1056
33 -116 96 -261 123 -283 33 -27 99 -18 168 23 69 41 306 200 382 256 93 68
115 207 63 383 -108 363 -314 759 -490 945 -95 99 -171 134 -232 107z"/>
</g>
</svg>
